<svg viewBox="0 0 24 24" xmlns="http://www.w3.org/2000/svg">
<g clip-path="url(#clip0_101:756)">
<path d="M4.58764 14.7245C5.22174 14.2634 5.792 14.0614 6.29841 14.1186C6.80482 14.1757 7.27914 14.5083 7.72138 15.1166L10.2972 18.6591L9.676 19.1108L8.97467 18.4931L8.93585 18.5213C8.91639 18.9707 8.82988 19.355 8.67633 19.6744C8.52925 19.9891 8.23572 20.3063 7.79573 20.6263C7.32339 20.9697 6.84254 21.1314 6.35318 21.1113C5.85912 21.0848 5.4192 20.8063 5.03342 20.2757C4.65705 19.758 4.57154 19.2119 4.77687 18.6373C4.97751 18.0562 5.49223 17.4446 6.32104 16.8024L7.18308 16.1311L6.95726 15.8205C6.64205 15.387 6.32946 15.1543 6.0195 15.1225C5.70954 15.0907 5.38309 15.1995 5.04016 15.4489C4.7684 15.6464 4.54016 15.8767 4.35544 16.1396C4.16602 16.396 4.00219 16.6536 3.86394 16.9124L3.13613 16.4623C3.2732 16.1747 3.46645 15.876 3.71587 15.566C3.96059 15.2496 4.25118 14.9691 4.58764 14.7245ZM6.85827 17.3168C6.23005 17.8131 5.85563 18.2436 5.73501 18.6083C5.62086 18.9682 5.68376 19.3132 5.92369 19.6432C6.1354 19.9344 6.378 20.0844 6.6515 20.0932C6.93147 20.0974 7.21057 19.9983 7.4888 19.796C7.92879 19.4761 8.20733 19.0906 8.32443 18.6395C8.43683 18.1819 8.30954 17.7008 7.94258 17.1961L7.60385 16.7302L6.85827 17.3168ZM9.89362 14.1751C9.0656 13.0363 8.59253 12.0252 8.47441 11.1417C8.35159 10.2518 8.61312 9.44841 9.25902 8.7315C9.61373 8.33511 9.9658 7.95549 10.3152 7.59263C10.6646 7.22977 10.9929 6.89219 11.2999 6.57991L11.9889 7.22139C11.786 7.41841 11.561 7.6463 11.3139 7.90506C11.0621 8.15736 10.8159 8.41054 10.5754 8.6646C10.3301 8.91219 10.1236 9.13156 9.95594 9.32269C9.60122 9.71908 9.42795 10.1814 9.43613 10.7095C9.43959 11.2313 9.69096 11.8694 10.1902 12.6241L10.2485 12.5818C10.2497 12.393 10.2809 12.1774 10.3421 11.9351C10.4097 11.6881 10.5206 11.4393 10.6748 11.1888C10.8354 10.9335 11.058 10.7024 11.3427 10.4954C12.0156 10.0061 12.6812 9.85354 13.3393 10.0377C13.9975 10.2219 14.5782 10.6601 15.0816 11.3525C15.5003 11.9283 15.7505 12.4833 15.8322 13.0174C15.9139 13.5515 15.8474 14.0449 15.6327 14.4978C15.4132 14.9442 15.0673 15.3391 14.595 15.6825C13.8768 16.2048 13.1042 16.3461 12.2773 16.1066C11.4503 15.8672 10.6558 15.2233 9.89362 14.1751ZM14.1478 14.9246C14.5684 14.6188 14.8093 14.236 14.8705 13.776C14.9317 13.3161 14.7224 12.7561 14.2425 12.0961C13.8567 11.5656 13.453 11.2211 13.0313 11.0629C12.6113 10.8934 12.1749 10.9734 11.722 11.3027C11.4373 11.5097 11.2255 11.7626 11.0867 12.0614C10.9431 12.3537 10.8525 12.6371 10.8148 12.9118C10.7772 13.1865 10.766 13.4023 10.7812 13.5594C11.0118 13.8764 11.2579 14.1673 11.5196 14.432C11.7813 14.6967 12.0542 14.9088 12.3382 15.0682C12.6241 15.2165 12.919 15.2889 13.2231 15.2854C13.529 15.2707 13.8372 15.1505 14.1478 14.9246ZM20.1349 5.55658C20.3702 5.8801 20.4566 6.20302 20.3942 6.52533C20.3318 6.84764 20.1721 7.1517 19.915 7.43753L19.9433 7.47635C20.2997 7.28641 20.6659 7.19823 21.0417 7.2118C21.4128 7.2189 21.7396 7.41656 22.0218 7.80479C22.3417 8.24478 22.4426 8.73033 22.3243 9.26143C22.2078 9.78136 21.7742 10.3142 21.0236 10.8599L18.7816 12.4901L14.9991 7.28786L17.2314 5.66476C17.6002 5.3966 17.9608 5.19872 18.3131 5.07113C18.6672 4.93236 18.999 4.89887 19.3083 4.97066C19.6195 5.03128 19.895 5.22659 20.1349 5.55658ZM19.3488 6.29141C19.17 6.04553 18.95 5.93346 18.6889 5.95519C18.4295 5.96575 18.0992 6.11687 17.698 6.40856L16.3684 7.37536L17.4057 8.80209L18.5801 7.9482C19.4407 7.32248 19.6969 6.77022 19.3488 6.29141ZM21.1386 8.44697C20.9222 8.14933 20.6537 8.01814 20.3332 8.05339C20.0126 8.08864 19.6323 8.26623 19.1923 8.58614L17.9209 9.5106L19.1347 11.18L20.4255 10.2414C20.8526 9.93089 21.1347 9.63184 21.2717 9.34424C21.4041 9.05017 21.3597 8.75108 21.1386 8.44697Z"/>
</g>
<defs>
<clipPath id="clip0_101:756">
<rect width="24" height="24" fill="none"/>
</clipPath>
</defs>
</svg>
