<svg  viewBox="0 0 24 24" xmlns="http://www.w3.org/2000/svg">
<path d="M23.8902 11.7087L12.2863 0.149603C12.13 -0.00678701 11.8767 -0.00678701 11.7203 0.149603L0.116104 11.7087C-0.0402856 11.865 -0.0371092 12.1146 0.116104 12.2731C0.194496 12.3539 0.296886 12.395 0.398493 12.3959V12.3975H3.20006V23.5685C3.20006 23.6789 3.24485 23.7777 3.31724 23.8497C3.38963 23.9225 3.48963 23.9677 3.60002 23.9677H9.19995C9.42073 23.9677 9.59994 23.7885 9.59994 23.5685V15.5902H14.3999V23.5685C14.3999 23.7881 14.5791 23.9677 14.7999 23.9677H20.3998C20.6206 23.9677 20.7998 23.7885 20.7998 23.5685V12.3975H23.6194C23.7242 12.3995 23.8229 12.3583 23.8901 12.2735C24.0262 12.0995 24.0466 11.865 23.8902 11.7087Z"/>
</svg>
