<svg xmlns="http://www.w3.org/2000/svg" viewBox="0 0 64 64"><defs><style>.cls-1{fill:#c4cbe9;}.cls-2{fill:#e8eaf6;}.cls-3{fill:#ff7f00;}.cls-4{fill:#0090e0;}</style></defs><title>House</title><g id="Layer_2" data-name="Layer 2"><g id="Layer_1-2" data-name="Layer 1"><rect class="cls-1" x="8" y="4" width="8" height="26"/><path class="cls-2" d="M56,28V61a3,3,0,0,1-3,3H11a3,3,0,0,1-3-3V28L32,4Z"/><path class="cls-1" d="M56,58v3a3,3,0,0,1-3,3H11a3,3,0,0,1-3-3V58Z"/><rect class="cls-3" x="26" y="44" width="12" height="20"/><rect class="cls-4" x="26" y="24" width="12" height="12" rx="6" ry="6"/><path class="cls-3" d="M60,34a4,4,0,0,1-2.72-1.07L32,9.46,6.72,32.93a4,4,0,1,1-5.44-5.86l28-26a4,4,0,0,1,5.44,0l28,26A4,4,0,0,1,60,34Z"/></g></g></svg>