<?xml version="1.0" ?><svg data-name="Layer 1" id="Layer_1" viewBox="0 0 272 272" xmlns="http://www.w3.org/2000/svg"><defs><style>.cls-1{fill:#ffeb3c;}.cls-2{fill:#f3f4f2;}.cls-3{fill:#f54337;}.cls-4{fill:#64b5f6;}</style></defs><title/><rect class="cls-1" height="128" rx="16" ry="16" width="128" x="76" y="8"/><rect class="cls-2" height="96" rx="8" ry="8" transform="translate(212 -68) rotate(90)" width="96" x="92" y="24"/><rect class="cls-3" height="128" rx="16" ry="16" width="128" x="136" y="136"/><rect class="cls-2" height="96" rx="8" ry="8" transform="translate(400) rotate(90)" width="96" x="152" y="152"/><rect class="cls-4" height="128" rx="16" ry="16" width="128" x="8" y="136"/><rect class="cls-2" height="96" rx="8" ry="8" transform="translate(272 128) rotate(90)" width="96" x="24" y="152"/><path class="cls-1" d="M137.71,90.1q-1.93-.07-3.88-4.54a39,39,0,0,1-2.22-6.64q-1.81.27-5.91.54-3.86.27-5.91.63-1.12,2.69-3.91,8.08a3.33,3.33,0,0,1-3,1.76,3.63,3.63,0,0,1-2.42-.92,2.93,2.93,0,0,1-1.07-2.33q0-1.25,3.56-8.45a2.9,2.9,0,0,1-.29-1.42q.1-1.17,2.37-1.83,3.47-6,7.71-12.45,6.1-9.25,7.52-9.25,2.69,0,3.59,3.25.49,2.61,1.54,7.84,1.49,7,3.64,16.09a30.92,30.92,0,0,0,1.25,3.22,9.2,9.2,0,0,1,.88,3.15,3,3,0,0,1-1.06,2.37A3.31,3.31,0,0,1,137.71,90.1Zm-9.11-25q-1.9,3.27-5.25,8.91a24.39,24.39,0,0,1,3.42-.39q2.73-.17,3.44-.27Q129.62,70.13,128.6,65.05Z"/><path class="cls-1" d="M167.32,90.71q-1.12,0-3.56-2.17a32.33,32.33,0,0,1-4,1.62,9.79,9.79,0,0,1-2.91.55q-5.88,0-8.83-3.15t-2.94-9.42a13.48,13.48,0,0,1,4.35-10.07,14.46,14.46,0,0,1,10.4-4.19,14,14,0,0,1,5.37,1.31q3.69,1.57,3.69,3.65a2.26,2.26,0,0,1-.56,1.52,16.23,16.23,0,0,0-.38,2.43q-.13,1.46-.13,3.42a23.74,23.74,0,0,0,.66,6.65q.07.22,1.12,2.51a12.78,12.78,0,0,1,1,2.37,2.68,2.68,0,0,1-1,2.13A3.41,3.41,0,0,1,167.32,90.71Zm-6.05-16.48a16.63,16.63,0,0,1,.11-1.79q.11-1,.33-2.26a5.32,5.32,0,0,0-.87-.35,2.39,2.39,0,0,0-.65-.11,7.8,7.8,0,0,0-5.81,2.6,9.4,9.4,0,0,0-1.32,10.94,4,4,0,0,0,3.52,1.65,8.2,8.2,0,0,0,2.87-.5A8.88,8.88,0,0,0,162,82.93,76.38,76.38,0,0,1,161.26,74.23Z"/><path class="cls-4" d="M62.39,217.69A41.57,41.57,0,0,1,48,219.81a3.54,3.54,0,0,1-2.62-1.22A3.75,3.75,0,0,1,44.23,216V190.1q-.07-1.66-.12-3.32a17.23,17.23,0,0,1,.12-3.17q.34-2.29,4.27-2.78a24.69,24.69,0,0,1,6.15-.54,15.11,15.11,0,0,1,8.84,3q5,3.47,5,8.67a10,10,0,0,1-1,4.74A12.25,12.25,0,0,1,64.61,200a12.06,12.06,0,0,1,4.2,3.47,8.25,8.25,0,0,1,2.08,5.15q0,3.25-3.54,6.15A17.78,17.78,0,0,1,62.39,217.69ZM54.65,186.9q-3.15,0-3.78,0l0,5.18,0,5.13a17.56,17.56,0,0,0,3.34.17q7.47-.59,7.47-5.49,0-1.73-2.2-3.34A8,8,0,0,0,54.65,186.9Zm2.86,17.26q-2.22,0-6.64-.17v9.13A41.53,41.53,0,0,0,60,211.51q4.3-1.22,4.25-2.64-.07-1.88-2.76-3.34A10.46,10.46,0,0,0,57.51,204.16Z"/><path class="cls-4" d="M86.41,219.67a17.77,17.77,0,0,1-6.49-1.2,3,3,0,0,1-2.2.9,3.19,3.19,0,0,1-2.26-.88,2.88,2.88,0,0,1-.94-2.2q0-.59.07-1.79t.07-1.79V185a6.19,6.19,0,0,1,.78-3.12,3.05,3.05,0,0,1,2.78-1.73q2.61,0,2.61,2.83a9.41,9.41,0,0,1-.09,1,9.35,9.35,0,0,0-.09,1v9.35a17.77,17.77,0,0,1,3.47-1.5,11.05,11.05,0,0,1,3.2-.5,11.58,11.58,0,0,1,9.28,4.17,14.2,14.2,0,0,1,3.3,9.47,13.22,13.22,0,0,1-3.83,9.59A12.93,12.93,0,0,1,86.41,219.67Zm.93-21a7.42,7.42,0,0,0-2.93.73,22.19,22.19,0,0,0-3.74,2.2q0,2.32,0,10.38a15,15,0,0,0,5.74,1.44,6.77,6.77,0,0,0,5.1-2.09,7.3,7.3,0,0,0,2-5.26,8.22,8.22,0,0,0-1.64-5.25A5.51,5.51,0,0,0,87.34,198.65Z"/><path class="cls-3" d="M198.91,191.82a3.43,3.43,0,0,1-3.25-2.32,2.54,2.54,0,0,0-1-1.32,6.24,6.24,0,0,0-1.93-.17q-3.08,0-7.1,4.79Q180,199.49,180,205.32a6.44,6.44,0,0,0,1.78,4.57,5.65,5.65,0,0,0,4.27,1.9,10.75,10.75,0,0,0,4.91-1.27q.88-.46,3.71-2.39a6.11,6.11,0,0,1,2.88-1.27,3.32,3.32,0,0,1,2.49,1.07,3.18,3.18,0,0,1-.32,4.81q-6.71,5.66-13.67,5.66a12.27,12.27,0,0,1-9.28-4,12.85,12.85,0,0,1-3.61-9.08q0-8.18,7.15-16.7,6.08-7.23,12.43-7.23,1.08,0,1.94.07a11.59,11.59,0,0,1,1.53.22,3.57,3.57,0,0,1,2.59-1q2.49,0,3.08,2.86a24.31,24.31,0,0,1,.42,4.79,3.75,3.75,0,0,1-.71,2.22A3.08,3.08,0,0,1,198.91,191.82Z"/><path class="cls-3" d="M216.61,219.36a13.54,13.54,0,0,1-9-3.05,10.56,10.56,0,0,1-3.83-8.5,18.16,18.16,0,0,1,3.44-10q3.91-5.91,9.08-5.91a16.27,16.27,0,0,1,5.93,1.37q4.13,1.68,4.13,3.88a3.1,3.1,0,0,1-.83,2.12,2.88,2.88,0,0,1-2.27,1,4.47,4.47,0,0,1-2.53-1.13A7.21,7.21,0,0,0,216.3,198q-1.88,0-4.08,3.69a12.66,12.66,0,0,0-2.1,6.15,4.85,4.85,0,0,0,1.86,4,7.26,7.26,0,0,0,4.64,1.39,9,9,0,0,0,4-1.25,9.82,9.82,0,0,1,3-1.25,3.06,3.06,0,0,1,2.26,1,3,3,0,0,1,.94,2.17q0,1.9-4.15,3.81A15.57,15.57,0,0,1,216.61,219.36Z"/></svg>