<svg viewBox="0 0 24 24" xmlns="http://www.w3.org/2000/svg">
<path d="M10 18.7825C10 18.9195 9.97414 19.0552 9.92389 19.1818C9.87363 19.3084 9.79997 19.4235 9.70712 19.5204C9.61426 19.6173 9.50401 19.6941 9.38269 19.7466C9.26136 19.799 9.13132 19.826 9 19.826H6V22.9565C6 23.2333 5.89464 23.4987 5.70711 23.6944C5.51957 23.8901 5.26522 24 5 24C4.73478 24 4.48043 23.8901 4.29289 23.6944C4.10536 23.4987 4 23.2333 4 22.9565V19.826H1C0.734784 19.826 0.48043 19.7161 0.292893 19.5204C0.105357 19.3247 0 19.0593 0 18.7825C0 18.5057 0.105357 18.2403 0.292893 18.0446C0.48043 17.8489 0.734784 17.739 1 17.739H4V14.6085C4 14.3318 4.10536 14.0663 4.29289 13.8706C4.48043 13.6749 4.73478 13.565 5 13.565C5.26522 13.565 5.51957 13.6749 5.70711 13.8706C5.89464 14.0663 6 14.3318 6 14.6085V17.739H9C9.13132 17.739 9.26136 17.766 9.38269 17.8184C9.50401 17.8709 9.61426 17.9477 9.70712 18.0446C9.79997 18.1415 9.87363 18.2566 9.92389 18.3832C9.97414 18.5098 10 18.6455 10 18.7825ZM9 3.13001H1C0.734784 3.13001 0.48043 3.23995 0.292893 3.43565C0.105357 3.63134 0 3.89676 0 4.17351C0 4.45027 0.105357 4.71568 0.292893 4.91138C0.48043 5.10707 0.734784 5.21701 1 5.21701H9C9.26522 5.21701 9.51957 5.10707 9.70711 4.91138C9.89464 4.71568 10 4.45027 10 4.17351C10 3.89676 9.89464 3.63134 9.70711 3.43565C9.51957 3.23995 9.26522 3.13001 9 3.13001ZM15 17.7477H23C23.2652 17.7477 23.5196 17.6377 23.7071 17.442C23.8946 17.2463 24 16.9809 24 16.7042C24 16.4274 23.8946 16.162 23.7071 15.9663C23.5196 15.7706 23.2652 15.6607 23 15.6607H15C14.7348 15.6607 14.4804 15.7706 14.2929 15.9663C14.1054 16.162 14 16.4274 14 16.7042C14 16.9809 14.1054 17.2463 14.2929 17.442C14.4804 17.6377 14.7348 17.7477 15 17.7477ZM23 19.8173H15C14.7348 19.8173 14.4804 19.9273 14.2929 20.123C14.1054 20.3187 14 20.5841 14 20.8608C14 21.1376 14.1054 21.403 14.2929 21.5987C14.4804 21.7944 14.7348 21.9043 15 21.9043H23C23.2652 21.9043 23.5196 21.7944 23.7071 21.5987C23.8946 21.403 24 21.1376 24 20.8608C24 20.5841 23.8946 20.3187 23.7071 20.123C23.5196 19.9273 23.2652 19.8173 23 19.8173ZM15.2929 8.04186C15.3858 8.13876 15.496 8.21563 15.6173 8.26807C15.7386 8.32052 15.8687 8.34751 16 8.34751C16.1313 8.34751 16.2614 8.32052 16.3827 8.26807C16.504 8.21563 16.6142 8.13876 16.7071 8.04186L19 5.64921L21.2929 8.04186C21.3857 8.13886 21.496 8.21581 21.6173 8.26833C21.7387 8.32086 21.8688 8.34791 22.0001 8.34795C22.1315 8.34799 22.2616 8.32102 22.383 8.26858C22.5044 8.21614 22.6146 8.13926 22.7075 8.04232C22.8004 7.94539 22.8741 7.8303 22.9244 7.70364C22.9746 7.57698 23.0005 7.44123 23.0004 7.30415C23.0004 7.16706 22.9745 7.03133 22.9241 6.9047C22.8738 6.77807 22.8 6.66303 22.7071 6.56616L20.4142 4.17351L22.7071 1.78087C22.8944 1.58513 22.9996 1.31979 22.9995 1.04315C22.9995 0.766517 22.8941 0.501238 22.7066 0.305628C22.5192 0.110018 22.265 8.67954e-05 21.9999 5.13745e-08C21.7348 -8.66927e-05 21.4805 0.109678 21.2929 0.305165L19 2.69781L16.7071 0.305165C16.5195 0.109678 16.2652 -8.66927e-05 16.0001 5.13745e-08C15.735 8.67954e-05 15.4808 0.110018 15.2934 0.305628C15.1059 0.501238 15.0005 0.766517 15.0005 1.04315C15.0004 1.31979 15.1056 1.58513 15.2929 1.78087L17.5858 4.17351L15.2929 6.56616C15.2 6.66305 15.1264 6.77808 15.0761 6.90468C15.0259 7.03128 15 7.16698 15 7.30401C15 7.44105 15.0259 7.57674 15.0761 7.70334C15.1264 7.82994 15.2 7.94497 15.2929 8.04186Z" />
</svg>
