<svg viewBox="0 0 24 24"  xmlns="http://www.w3.org/2000/svg">
<g clip-path="url(#clip0_21:468)">
<path d="M9.73056 18.4096C9.81644 18.3372 9.90262 18.2993 9.98908 18.2958C10.0755 18.2923 10.147 18.3293 10.2035 18.407C10.2317 18.4458 10.2496 18.4773 10.2573 18.5014C10.3019 18.6173 10.284 18.749 10.2034 18.8966C10.1246 19.0331 10.0252 19.1548 9.90515 19.2619C9.47868 19.6412 9.00016 20.0237 8.46959 20.4095C8.0296 20.7294 7.52285 21.0732 6.94934 21.4407C6.80228 21.5377 6.69818 21.5442 6.63701 21.4601C6.57115 21.3695 6.57352 21.2095 6.64413 20.9801C6.7165 20.7396 6.81092 20.5769 6.92739 20.4923C7.11327 20.367 7.38414 20.175 7.74002 19.9162C7.35897 19.1745 7.02937 18.524 6.75123 17.9646C6.47309 17.4052 6.24082 16.9361 6.05441 16.5573L5.28526 15.0097L5.29936 15.1924C5.30345 15.3476 5.26991 15.5056 5.19872 15.6661C5.1293 15.8155 5.03077 15.9317 4.90313 16.0146C4.81901 16.0757 4.72078 16.1175 4.60844 16.1398C4.50257 16.1575 4.42611 16.1339 4.37906 16.0692C4.36495 16.0498 4.35201 16.0048 4.34026 15.9342C4.26686 14.8402 4.10526 13.5977 3.85545 12.2066C3.83781 12.1008 3.88077 11.9558 3.98431 11.7717C4.08961 11.5764 4.20697 11.4318 4.33638 11.3377C4.52402 11.2012 4.66371 11.2233 4.75544 11.4039C5.47284 12.8803 6.40811 14.7175 7.56126 16.9157L8.72558 19.17C8.95205 19.0053 9.28704 18.7518 9.73056 18.4096ZM12.4357 15.1222C12.3456 15.801 12.2924 16.2106 12.2759 16.3512C12.6859 16.0036 13.2014 15.604 13.8226 15.1524C14.502 14.6584 15.1526 14.22 15.7743 13.8372C15.7855 13.7301 15.8287 13.6195 15.904 13.5054C15.9811 13.3802 16.0714 13.2799 16.1749 13.2046C16.3367 13.087 16.4876 13.0564 16.6275 13.1129L17.0669 13.2682C17.1304 13.3012 17.1692 13.3274 17.1833 13.3468C17.2398 13.4244 17.2518 13.5294 17.2195 13.6618C17.1889 13.7829 17.1327 13.9029 17.0509 14.0217C16.9756 14.1358 16.9065 14.2108 16.8436 14.2466C15.8248 14.8588 14.8851 15.4778 14.0245 16.1035C13.2416 16.6727 12.559 17.2235 11.9766 17.7557C11.8696 17.8533 11.7446 17.9195 11.6016 17.9542C11.4587 17.9889 11.3543 17.9609 11.2885 17.8703C11.2461 17.8121 11.2241 17.7341 11.2223 17.6365C11.22 17.1436 11.2863 16.5069 11.421 15.7264C11.434 15.6082 11.4519 15.4765 11.4749 15.3312C11.4979 15.1859 11.5202 15.0262 11.542 14.8521C11.7581 13.1224 11.8782 11.7096 11.9025 10.6138L11.9043 10.3306C11.9214 9.82361 11.9138 9.36425 11.8815 8.95252C11.8445 8.53433 11.7389 8.20553 11.5649 7.96612C11.4896 7.8626 11.402 7.78289 11.302 7.727C11.1749 7.66111 11.0335 7.65021 10.8776 7.69431C10.7235 7.72723 10.572 7.79779 10.4232 7.906C10.2356 8.04243 10.0926 8.18593 9.9944 8.33649C9.79145 8.64232 9.67495 8.99903 9.6449 9.40663C9.62133 9.80952 9.63392 10.3098 9.68267 10.9074C9.68265 11.0162 9.68823 11.1259 9.69939 11.2364C9.71055 11.347 9.71613 11.4567 9.71612 11.5655C9.71316 11.6567 9.65698 11.7767 9.54756 11.9255C9.44462 12.0696 9.32844 12.1886 9.19903 12.2827C8.99845 12.4286 8.86287 12.453 8.7923 12.3559C8.76878 12.3236 8.75349 12.2753 8.74644 12.2112C8.68771 11.4231 8.6675 10.7355 8.6858 10.1485C8.71057 9.5568 8.8318 8.98893 9.04949 8.4449C9.26894 7.88969 9.63102 7.42861 10.1357 7.06164C10.2651 6.96755 10.4048 6.88081 10.5548 6.80143C11.3112 6.39979 11.8847 6.4675 12.2752 7.00455C12.5339 7.36042 12.698 7.8445 12.7673 8.4568C12.8384 9.05792 12.8689 9.69844 12.8589 10.3784C12.834 11.5141 12.7286 12.8519 12.5425 14.3917L12.4357 15.1222ZM18.4901 5.61626C19.2683 5.14934 20.0088 5.0115 20.7117 5.20274C21.174 5.3216 21.5509 5.58162 21.8426 5.98279C22.0402 6.25454 22.1852 6.56953 22.2775 6.92773C22.3698 7.28594 22.4171 7.65708 22.4194 8.04116C22.4117 8.77873 22.2613 9.47657 21.9683 10.1347C21.6753 10.7928 21.2506 11.3242 20.6942 11.7288C20.5906 11.8041 20.5106 11.8573 20.4542 11.8885C19.8259 12.276 19.1619 12.4374 18.462 12.3726C17.762 12.3078 17.1301 12.0304 16.5661 11.5404C16.4285 11.4327 16.4006 11.2651 16.4823 11.0375C16.5641 10.8099 16.6891 10.6349 16.8574 10.5126C17.0321 10.3856 17.1747 10.3709 17.2853 10.4685C17.7105 10.8221 18.1686 11.0577 18.6597 11.1754C19.1573 11.2884 19.6437 11.2364 20.119 11.0194C20.2496 10.9541 20.3699 10.8815 20.4799 10.8015C20.8422 10.5381 21.1019 10.1811 21.259 9.73055C21.4161 9.28003 21.4841 8.79538 21.463 8.27661C21.4342 7.73373 21.2905 7.28435 21.0317 6.92847C20.7777 6.57907 20.4527 6.37023 20.0569 6.30196C19.4682 6.18602 18.8438 6.36799 18.1838 6.84786C17.925 7.03604 17.69 7.23658 17.4788 7.44948C17.4347 7.51123 17.3638 7.59739 17.2662 7.70795C17.2091 7.77911 17.1547 7.83351 17.1029 7.87115C16.9929 7.95113 16.8926 7.96965 16.8021 7.9267C16.7415 7.9114 16.703 7.86522 16.6865 7.78817C16.643 7.70112 16.6245 7.60083 16.631 7.48731C16.6439 7.36909 16.6816 7.25764 16.7439 7.15295L16.9998 6.7295C17.3381 6.14725 17.5931 5.67497 17.7649 5.31268C17.7849 5.25857 17.8685 5.07419 18.0155 4.75953C18.1691 4.44017 18.2753 4.13051 18.3341 3.83055C18.3883 3.52412 18.358 3.29885 18.2433 3.15473C18.0346 2.88121 17.7361 2.88559 17.3479 3.16786C17.0826 3.36075 16.8005 3.65981 16.5017 4.06502C16.2093 4.46553 15.9505 4.87134 15.7251 5.28245C15.4951 5.68708 15.3525 5.9738 15.2971 6.1426C15.2036 6.40844 15.0759 6.60017 14.9142 6.71779C14.8689 6.75072 14.8133 6.7763 14.7474 6.79452C14.598 6.83391 14.4927 6.81155 14.4316 6.72744C14.3939 6.67567 14.3831 6.5995 14.399 6.49893C14.5602 5.55081 15.1353 4.48482 16.1242 3.30094C16.4371 2.91514 16.778 2.58815 17.1468 2.31999C17.7744 1.86364 18.3176 1.76048 18.7764 2.01051C18.8922 2.07463 18.9901 2.16169 19.0701 2.27169C19.2724 2.54992 19.3294 2.914 19.2412 3.36394C19.1594 3.80918 19.0228 4.27441 18.8316 4.75963C18.7198 5.06841 18.606 5.35395 18.4901 5.61626Z"/>
</g>
<defs>
<clipPath id="clip0_21:468">
<rect width="24" height="24" fill="none"/>
</clipPath>
</defs>
</svg>
