<svg viewBox="0 0 24 24" xmlns="http://www.w3.org/2000/svg">
<path d="M11.968 0.0936904C11.8584 0.0191449 11.7372 -0.0117878 11.6167 0.00402866C11.4963 0.0198451 11.3809 0.0818481 11.2821 0.183752L5.94627 5.98771H0.685844C0.503947 5.98771 0.3295 6.09314 0.200879 6.2808C0.0722583 6.46847 0 6.723 0 6.98839V16.9952C0 17.2606 0.0722583 17.5151 0.200879 17.7028C0.3295 17.8905 0.503947 17.9959 0.685844 17.9959H5.94627L11.2478 23.7999C11.3497 23.9114 11.4709 23.9793 11.5978 23.996C11.7246 24.0126 11.8521 23.9775 11.9661 23.8944C12.08 23.8112 12.1758 23.6835 12.2428 23.5254C12.3097 23.3673 12.3452 23.1852 12.3452 22.9993V0.984298C12.3448 0.799504 12.3094 0.618475 12.2428 0.461276C12.1762 0.304076 12.0811 0.176847 11.968 0.0936904Z" />
<path d="M19.4731 13.7025L22.1388 15.9039C22.3604 16.0603 22.64 16.1365 22.9218 16.1172C23.2036 16.098 23.4669 15.9846 23.6591 15.7999C23.8512 15.6152 23.958 15.3727 23.9582 15.1208C23.9584 14.8689 23.8519 14.6263 23.66 14.4413L20.9943 12.2399L23.4649 9.86464C23.6404 9.66726 23.726 9.41811 23.7043 9.16698C23.6827 8.91586 23.5555 8.68125 23.3482 8.51005C23.1409 8.33884 22.8687 8.24365 22.586 8.24349C22.3034 8.24334 22.031 8.33822 21.8235 8.5092L19.3529 10.8845L16.6871 8.6831C16.5821 8.5819 16.4548 8.50113 16.3131 8.44586C16.1714 8.39059 16.0184 8.36202 15.8637 8.36193C15.709 8.36184 15.556 8.39025 15.4142 8.44536C15.2725 8.50047 15.145 8.5811 15.0399 8.68218C14.9347 8.78327 14.8542 8.90262 14.8033 9.03277C14.7524 9.16291 14.7322 9.30102 14.744 9.43844C14.7558 9.57586 14.7994 9.70961 14.872 9.83131C14.9446 9.953 15.0447 10.06 15.1659 10.1456L17.8317 12.347L15.3611 14.7223C15.1855 14.9197 15.1 15.1689 15.1216 15.42C15.1432 15.6711 15.2704 15.9057 15.4777 16.0769C15.6851 16.2481 15.9572 16.3433 16.2399 16.3435C16.5226 16.3436 16.7949 16.2487 17.0024 16.0778L19.4731 13.7025Z" />
</svg>
