<svg  viewBox="0 0 24 24"  xmlns="http://www.w3.org/2000/svg">
<path d="M15 23.6016V20.4449C18.4877 19.2066 21 15.9119 21 12C21 8.08957 18.4877 4.79412 15 3.55514V0.398446C20.1723 1.73342 24 6.41259 24 12C24 17.5874 20.1723 22.2673 15 23.6016ZM12 23.9938L6 17.9969H1.5C0.670835 17.9969 0 17.3264 0 16.4977V7.50233C0 6.67359 0.670835 6.0031 1.5 6.0031H6L12 0.00620277C12 0.00620277 13.5 -0.181294 13.5 1.50543C13.5 4.92237 13.5 19.4136 13.5 22.4946C13.5 24.1813 12 23.9938 12 23.9938ZM10.5 6.0031L7.5 9.00155H3V14.9984H7.5L10.5 17.9969V6.0031ZM19.5 12C19.5 14.7907 17.5843 17.1157 15 17.7847V14.583C15.8937 14.0632 16.5 13.107 16.5 12C16.5 10.893 15.8937 9.93678 15 9.41704V6.21535C17.5843 6.88434 19.5 9.2093 19.5 12Z" />
</svg>
