<svg  viewBox="0 0 24 24" xmlns="http://www.w3.org/2000/svg">
<path d="M13.744 12.3842H24V2.13207C23.984 -0.137502 22.658 -0.683401 21.054 0.9223L18.746 3.23787C16.716 1.64816 14.232 0.778327 11.614 0.778327C8.514 0.778327 5.596 1.9861 3.406 4.17969C1.208 6.36329 0 9.28474 0 12.3842C0 15.4896 1.208 18.407 3.402 20.5966C5.596 22.7902 8.512 24 11.614 24C14.714 24 17.632 22.7902 19.826 20.5946C20.418 20.0007 20.942 19.3529 21.386 18.665C22.08 17.5832 21.766 16.1455 20.686 15.4556C19.608 14.7637 18.17 15.0777 17.478 16.1555C17.212 16.5694 16.894 16.9553 16.542 17.3152C15.224 18.631 13.474 19.3549 11.614 19.3549C9.754 19.3549 8.004 18.633 6.686 17.3152C5.372 15.9995 4.646 14.2498 4.646 12.3862C4.646 10.5265 5.37 8.77684 6.686 7.46508C8.004 6.14933 9.754 5.42346 11.614 5.42346C12.99 5.42346 14.306 5.82539 15.432 6.56725L12.536 9.46871C10.93 11.0724 11.476 12.3842 13.744 12.3842Z" />
</svg>
